<mxfile host="drawio-plugin" modified="2022-12-23T23:37:02.373Z" agent="5.0 (Windows NT 6.2; Win64; x64) AppleWebKit/537.36 (KHTML, like Gecko) Chrome/98.0.4758.102 Safari/537.36" etag="BDVRWKcD5mawkkoXhKIw" version="20.5.3" type="embed"><diagram id="C5RBs43oDa-KdzZeNtuy" name="Page-1"><mxGraphModel dx="610" dy="-602" grid="1" gridSize="10" guides="1" tooltips="1" connect="1" arrows="1" fold="1" page="1" pageScale="1" pageWidth="827" pageHeight="1169" math="0" shadow="0"><root><mxCell id="WIyWlLk6GJQsqaUBKTNV-0"/><mxCell id="WIyWlLk6GJQsqaUBKTNV-1" parent="WIyWlLk6GJQsqaUBKTNV-0"/><mxCell id="IhfPKTNpJpT7pyrN4hwQ-0" value="" style="rounded=1;whiteSpace=wrap;html=1;absoluteArcSize=1;arcSize=49;strokeWidth=2;" parent="WIyWlLk6GJQsqaUBKTNV-1" vertex="1"><mxGeometry x="297" y="1360" width="733" height="760" as="geometry"/></mxCell><mxCell id="IhfPKTNpJpT7pyrN4hwQ-1" value="HOTEL APP" style="text;html=1;strokeColor=none;fillColor=none;align=center;verticalAlign=middle;whiteSpace=wrap;rounded=0;fontFamily=Lucida Console;fontStyle=1" parent="WIyWlLk6GJQsqaUBKTNV-1" vertex="1"><mxGeometry x="556" y="1368" width="220" height="30" as="geometry"/></mxCell><mxCell id="IhfPKTNpJpT7pyrN4hwQ-2" style="rounded=0;orthogonalLoop=1;jettySize=auto;html=1;fontFamily=Lucida Console;endArrow=none;endFill=0;entryX=0;entryY=0.5;entryDx=0;entryDy=0;" parent="WIyWlLk6GJQsqaUBKTNV-1" source="IhfPKTNpJpT7pyrN4hwQ-7" target="IhfPKTNpJpT7pyrN4hwQ-9" edge="1"><mxGeometry relative="1" as="geometry"><Array as="points"/></mxGeometry></mxCell><mxCell id="IhfPKTNpJpT7pyrN4hwQ-3" style="rounded=0;orthogonalLoop=1;jettySize=auto;html=1;entryX=0.014;entryY=0.391;entryDx=0;entryDy=0;entryPerimeter=0;endArrow=none;endFill=0;" parent="WIyWlLk6GJQsqaUBKTNV-1" source="IhfPKTNpJpT7pyrN4hwQ-7" target="IhfPKTNpJpT7pyrN4hwQ-14" edge="1"><mxGeometry relative="1" as="geometry"/></mxCell><mxCell id="IhfPKTNpJpT7pyrN4hwQ-4" style="rounded=0;orthogonalLoop=1;jettySize=auto;html=1;entryX=-0.003;entryY=0.626;entryDx=0;entryDy=0;entryPerimeter=0;startArrow=none;startFill=0;endArrow=none;endFill=0;" parent="WIyWlLk6GJQsqaUBKTNV-1" source="IhfPKTNpJpT7pyrN4hwQ-7" target="IhfPKTNpJpT7pyrN4hwQ-8" edge="1"><mxGeometry relative="1" as="geometry"/></mxCell><mxCell id="IhfPKTNpJpT7pyrN4hwQ-5" style="edgeStyle=none;rounded=0;orthogonalLoop=1;jettySize=auto;html=1;entryX=0;entryY=0.5;entryDx=0;entryDy=0;startArrow=none;startFill=0;endArrow=none;endFill=0;" parent="WIyWlLk6GJQsqaUBKTNV-1" source="IhfPKTNpJpT7pyrN4hwQ-7" target="IhfPKTNpJpT7pyrN4hwQ-20" edge="1"><mxGeometry relative="1" as="geometry"/></mxCell><mxCell id="IhfPKTNpJpT7pyrN4hwQ-6" style="edgeStyle=none;rounded=0;orthogonalLoop=1;jettySize=auto;html=1;entryX=0;entryY=0.5;entryDx=0;entryDy=0;startArrow=none;startFill=0;endArrow=none;endFill=0;" parent="WIyWlLk6GJQsqaUBKTNV-1" source="IhfPKTNpJpT7pyrN4hwQ-7" target="IhfPKTNpJpT7pyrN4hwQ-27" edge="1"><mxGeometry relative="1" as="geometry"/></mxCell><mxCell id="IhfPKTNpJpT7pyrN4hwQ-7" value="Client" style="shape=umlActor;verticalLabelPosition=bottom;verticalAlign=top;html=1;outlineConnect=0;fontFamily=Lucida Console;" parent="WIyWlLk6GJQsqaUBKTNV-1" vertex="1"><mxGeometry x="200" y="1610" width="50" height="100" as="geometry"/></mxCell><mxCell id="IhfPKTNpJpT7pyrN4hwQ-8" value="Explore &lt;br&gt;the app" style="ellipse;whiteSpace=wrap;html=1;fontFamily=Lucida Console;" parent="WIyWlLk6GJQsqaUBKTNV-1" vertex="1"><mxGeometry x="400" y="1430" width="140" height="50" as="geometry"/></mxCell><mxCell id="IhfPKTNpJpT7pyrN4hwQ-9" value="Book a room" style="ellipse;whiteSpace=wrap;html=1;fontFamily=Lucida Console;" parent="WIyWlLk6GJQsqaUBKTNV-1" vertex="1"><mxGeometry x="400" y="1500" width="140" height="60" as="geometry"/></mxCell><mxCell id="IhfPKTNpJpT7pyrN4hwQ-10" value="Authentification" style="ellipse;whiteSpace=wrap;html=1;fontFamily=Lucida Console;" parent="WIyWlLk6GJQsqaUBKTNV-1" vertex="1"><mxGeometry x="640" y="1495" width="140" height="70" as="geometry"/></mxCell><mxCell id="IhfPKTNpJpT7pyrN4hwQ-11" value="&amp;lt;include&amp;gt;" style="endArrow=open;endSize=12;dashed=1;html=1;rounded=0;fontFamily=Lucida Console;exitX=1;exitY=0.5;exitDx=0;exitDy=0;" parent="WIyWlLk6GJQsqaUBKTNV-1" edge="1"><mxGeometry x="0.0402" y="-2" width="160" relative="1" as="geometry"><mxPoint x="537" y="1530" as="sourcePoint"/><mxPoint x="641.7596729921047" y="1527.685619140424" as="targetPoint"/><Array as="points"/><mxPoint as="offset"/></mxGeometry></mxCell><mxCell id="IhfPKTNpJpT7pyrN4hwQ-12" style="edgeStyle=orthogonalEdgeStyle;rounded=0;orthogonalLoop=1;jettySize=auto;html=1;endArrow=none;endFill=0;startArrow=none;startFill=0;" parent="WIyWlLk6GJQsqaUBKTNV-1" target="IhfPKTNpJpT7pyrN4hwQ-16" edge="1"><mxGeometry relative="1" as="geometry"><mxPoint x="470" y="1720" as="sourcePoint"/><Array as="points"><mxPoint x="470" y="1720"/><mxPoint x="410" y="1720"/></Array></mxGeometry></mxCell><mxCell id="IhfPKTNpJpT7pyrN4hwQ-13" style="edgeStyle=orthogonalEdgeStyle;rounded=0;orthogonalLoop=1;jettySize=auto;html=1;endArrow=none;endFill=0;startArrow=block;startFill=0;" parent="WIyWlLk6GJQsqaUBKTNV-1" source="IhfPKTNpJpT7pyrN4hwQ-14" target="IhfPKTNpJpT7pyrN4hwQ-17" edge="1"><mxGeometry relative="1" as="geometry"><Array as="points"><mxPoint x="470" y="1720"/><mxPoint x="560" y="1720"/></Array></mxGeometry></mxCell><mxCell id="IhfPKTNpJpT7pyrN4hwQ-14" value="Payment" style="ellipse;whiteSpace=wrap;html=1;fontFamily=Lucida Console;fontSize=10;fontStyle=0" parent="WIyWlLk6GJQsqaUBKTNV-1" vertex="1"><mxGeometry x="400" y="1640" width="140" height="50" as="geometry"/></mxCell><mxCell id="IhfPKTNpJpT7pyrN4hwQ-15" value="&amp;lt;include&amp;gt;" style="endArrow=open;endSize=12;dashed=1;html=1;rounded=0;fontFamily=Lucida Console;entryX=0.5;entryY=0;entryDx=0;entryDy=0;" parent="WIyWlLk6GJQsqaUBKTNV-1" edge="1"><mxGeometry x="0.0402" y="-2" width="160" relative="1" as="geometry"><mxPoint x="470" y="1563" as="sourcePoint"/><mxPoint x="470" y="1643" as="targetPoint"/><Array as="points"><mxPoint x="470" y="1563"/></Array><mxPoint as="offset"/></mxGeometry></mxCell><mxCell id="IhfPKTNpJpT7pyrN4hwQ-16" value="Credit Card" style="ellipse;whiteSpace=wrap;html=1;" parent="WIyWlLk6GJQsqaUBKTNV-1" vertex="1"><mxGeometry x="340" y="1763" width="140" height="70" as="geometry"/></mxCell><mxCell id="IhfPKTNpJpT7pyrN4hwQ-17" value="Direct Billing" style="ellipse;whiteSpace=wrap;html=1;" parent="WIyWlLk6GJQsqaUBKTNV-1" vertex="1"><mxGeometry x="490" y="1762" width="140" height="70" as="geometry"/></mxCell><mxCell id="IhfPKTNpJpT7pyrN4hwQ-18" style="edgeStyle=orthogonalEdgeStyle;rounded=0;orthogonalLoop=1;jettySize=auto;html=1;startArrow=none;startFill=0;endArrow=none;endFill=0;" parent="WIyWlLk6GJQsqaUBKTNV-1" target="IhfPKTNpJpT7pyrN4hwQ-21" edge="1"><mxGeometry relative="1" as="geometry"><mxPoint x="550" y="1905" as="sourcePoint"/><Array as="points"><mxPoint x="600" y="1905"/><mxPoint x="600" y="1870"/></Array></mxGeometry></mxCell><mxCell id="IhfPKTNpJpT7pyrN4hwQ-19" style="edgeStyle=orthogonalEdgeStyle;rounded=0;orthogonalLoop=1;jettySize=auto;html=1;startArrow=block;startFill=0;endArrow=none;endFill=0;exitX=1;exitY=0.5;exitDx=0;exitDy=0;exitPerimeter=0;" parent="WIyWlLk6GJQsqaUBKTNV-1" source="IhfPKTNpJpT7pyrN4hwQ-20" target="IhfPKTNpJpT7pyrN4hwQ-22" edge="1"><mxGeometry relative="1" as="geometry"/></mxCell><mxCell id="IhfPKTNpJpT7pyrN4hwQ-20" value="Edit Booking &lt;br&gt;Plan" style="ellipse;whiteSpace=wrap;html=1;" parent="WIyWlLk6GJQsqaUBKTNV-1" vertex="1"><mxGeometry x="400" y="1880" width="140" height="50" as="geometry"/></mxCell><mxCell id="IhfPKTNpJpT7pyrN4hwQ-21" value="Update Booking" style="ellipse;whiteSpace=wrap;html=1;" parent="WIyWlLk6GJQsqaUBKTNV-1" vertex="1"><mxGeometry x="660" y="1850" width="140" height="50" as="geometry"/></mxCell><mxCell id="IhfPKTNpJpT7pyrN4hwQ-22" value="Delete Booking" style="ellipse;whiteSpace=wrap;html=1;" parent="WIyWlLk6GJQsqaUBKTNV-1" vertex="1"><mxGeometry x="660" y="1910" width="140" height="50" as="geometry"/></mxCell><mxCell id="IhfPKTNpJpT7pyrN4hwQ-23" value="Generate Invoice" style="ellipse;whiteSpace=wrap;html=1;fontSize=10;fontFamily=Lucida Console;fontStyle=0;" parent="WIyWlLk6GJQsqaUBKTNV-1" vertex="1"><mxGeometry x="660" y="1650" width="120" height="70" as="geometry"/></mxCell><mxCell id="IhfPKTNpJpT7pyrN4hwQ-24" value="&amp;lt;extend&amp;gt;" style="endArrow=none;endSize=16;endFill=0;html=1;rounded=0;dashed=1;entryX=0.023;entryY=0.409;entryDx=0;entryDy=0;entryPerimeter=0;startArrow=open;startFill=0;exitX=0.963;exitY=0.725;exitDx=0;exitDy=0;exitPerimeter=0;" parent="WIyWlLk6GJQsqaUBKTNV-1" source="IhfPKTNpJpT7pyrN4hwQ-14" target="IhfPKTNpJpT7pyrN4hwQ-23" edge="1"><mxGeometry width="160" relative="1" as="geometry"><mxPoint x="540" y="1670" as="sourcePoint"/><mxPoint x="680" y="1680" as="targetPoint"/><Array as="points"><mxPoint x="630" y="1680"/></Array></mxGeometry></mxCell><mxCell id="IhfPKTNpJpT7pyrN4hwQ-25" style="edgeStyle=orthogonalEdgeStyle;rounded=0;orthogonalLoop=1;jettySize=auto;html=1;startArrow=none;startFill=0;endArrow=none;endFill=0;" parent="WIyWlLk6GJQsqaUBKTNV-1" target="IhfPKTNpJpT7pyrN4hwQ-28" edge="1"><mxGeometry relative="1" as="geometry"><Array as="points"><mxPoint x="600" y="2033"/><mxPoint x="600" y="2000"/></Array><mxPoint x="550" y="2033" as="sourcePoint"/></mxGeometry></mxCell><mxCell id="IhfPKTNpJpT7pyrN4hwQ-26" style="edgeStyle=orthogonalEdgeStyle;rounded=0;orthogonalLoop=1;jettySize=auto;html=1;startArrow=block;startFill=0;endArrow=none;endFill=0;exitX=1;exitY=0.5;exitDx=0;exitDy=0;" parent="WIyWlLk6GJQsqaUBKTNV-1" source="IhfPKTNpJpT7pyrN4hwQ-27" target="IhfPKTNpJpT7pyrN4hwQ-29" edge="1"><mxGeometry relative="1" as="geometry"><mxPoint x="550" y="2033" as="sourcePoint"/></mxGeometry></mxCell><mxCell id="IhfPKTNpJpT7pyrN4hwQ-27" value="Edit Profile &lt;br&gt;Info" style="ellipse;whiteSpace=wrap;html=1;" parent="WIyWlLk6GJQsqaUBKTNV-1" vertex="1"><mxGeometry x="400" y="1998" width="140" height="70" as="geometry"/></mxCell><mxCell id="IhfPKTNpJpT7pyrN4hwQ-28" value="Update Profile" style="ellipse;whiteSpace=wrap;html=1;" parent="WIyWlLk6GJQsqaUBKTNV-1" vertex="1"><mxGeometry x="660" y="1969" width="140" height="50" as="geometry"/></mxCell><mxCell id="IhfPKTNpJpT7pyrN4hwQ-29" value="Delete Profile" style="ellipse;whiteSpace=wrap;html=1;" parent="WIyWlLk6GJQsqaUBKTNV-1" vertex="1"><mxGeometry x="660" y="2040" width="140" height="50" as="geometry"/></mxCell><mxCell id="IhfPKTNpJpT7pyrN4hwQ-30" value="Login" style="ellipse;whiteSpace=wrap;html=1;" parent="WIyWlLk6GJQsqaUBKTNV-1" vertex="1"><mxGeometry x="867" y="1425" width="140" height="70" as="geometry"/></mxCell><mxCell id="IhfPKTNpJpT7pyrN4hwQ-31" value="SignUp" style="ellipse;whiteSpace=wrap;html=1;" parent="WIyWlLk6GJQsqaUBKTNV-1" vertex="1"><mxGeometry x="880" y="1510" width="140" height="70" as="geometry"/></mxCell><mxCell id="IhfPKTNpJpT7pyrN4hwQ-32" value="&amp;lt;include&amp;gt;" style="endArrow=openThin;endSize=16;endFill=0;html=1;rounded=0;entryX=0;entryY=1;entryDx=0;entryDy=0;dashed=1;" parent="WIyWlLk6GJQsqaUBKTNV-1" target="IhfPKTNpJpT7pyrN4hwQ-30" edge="1"><mxGeometry width="160" relative="1" as="geometry"><mxPoint x="770" y="1510" as="sourcePoint"/><mxPoint x="880" y="1480" as="targetPoint"/><Array as="points"><mxPoint x="870" y="1490"/></Array></mxGeometry></mxCell><mxCell id="IhfPKTNpJpT7pyrN4hwQ-33" value="&amp;lt;extend&amp;gt;" style="endArrow=none;endSize=16;endFill=0;html=1;rounded=0;entryX=0.011;entryY=0.626;entryDx=0;entryDy=0;entryPerimeter=0;dashed=1;startArrow=open;startFill=0;" parent="WIyWlLk6GJQsqaUBKTNV-1" edge="1"><mxGeometry width="160" relative="1" as="geometry"><mxPoint x="774" y="1545" as="sourcePoint"/><mxPoint x="885.54" y="1553.8200000000002" as="targetPoint"/></mxGeometry></mxCell></root></mxGraphModel></diagram></mxfile>